<?xml version="1.0" ?><!DOCTYPE svg  PUBLIC '-//W3C//DTD SVG 1.1//EN'  'http://www.w3.org/Graphics/SVG/1.1/DTD/svg11.dtd'><svg enable-background="new 0 0 24 24" height="24px" id="Layer_1" version="1.1" viewBox="0 0 24 24" width="24px" xml:space="preserve" xmlns="http://www.w3.org/2000/svg" xmlns:xlink="http://www.w3.org/1999/xlink"><path d="M19.7,0.5H4.3c-2.1,0-3.8,1.7-3.8,3.8v15.4c0,2.1,1.7,3.8,3.8,3.8h15.4c2.1,0,3.8-1.7,3.8-3.8V4.3  C23.5,2.2,21.8,0.5,19.7,0.5z M8,18.7H5.9V9.9H8V18.7z M6.9,7.7L6.9,7.7c-0.8,0-1.4-0.5-1.4-1.2c0-0.7,0.6-1.2,1.4-1.2  c0.8,0,1.4,0.5,1.4,1.2C8.3,7.2,7.7,7.7,6.9,7.7z M18.5,18.7H16V15c0-1.7-0.8-2.7-2.2-2.7c-1,0-1.7,0.5-2.1,1.5  c-0.1,0.3-0.1,0.6-0.1,0.9l0,4H9c0-1.7,0-7,0-8.8h2.5v1c0,0.2,0.2,0.4,0.4,0.5c0.2,0,0.5-0.1,0.5-0.3c0.1-0.4,1-1.3,2.6-1.3  c2.2,0,3.4,1.4,3.4,4V18.7z"/></svg>